<?xml version="1.0" standalone="no"?>
<!DOCTYPE svg PUBLIC "-//W3C//DTD SVG 20010904//EN"
 "http://www.w3.org/TR/2001/REC-SVG-20010904/DTD/svg10.dtd">
<svg version="1.0" xmlns="http://www.w3.org/2000/svg"
 width="504.000000pt" height="504.000000pt" viewBox="0 0 504.000000 504.000000"
 preserveAspectRatio="xMidYMid meet">
<metadata>
Created by potrace 1.14, written by Peter Selinger 2001-2017
</metadata>
<g transform="translate(0.000000,504.000000) scale(0.100000,-0.100000)"
fill="#000000" stroke="none">
<path d="M1 3883 c1 -637 3 -1149 6 -1138 18 81 139 416 197 546 35 81 320
474 366 506 24 17 24 14 5 -57 -23 -86 -44 -252 -51 -410 -17 -386 63 -783
241 -1189 101 -232 197 -363 555 -751 181 -198 241 -274 296 -374 102 -186
140 -313 125 -415 l-6 -39 -65 24 -65 25 0 65 c0 62 -2 67 -34 96 -25 23 -40
29 -60 25 l-27 -6 -11 98 c-12 108 -34 167 -88 241 -46 63 -97 86 -205 95 -66
6 -91 13 -115 31 -36 27 -133 54 -190 53 -32 -1 -23 -4 46 -19 125 -26 157
-46 208 -132 28 -48 34 -48 15 -3 -8 20 -12 40 -9 45 5 9 49 7 133 -6 18 -3
30 -9 27 -13 -2 -5 3 -8 12 -7 10 0 18 -5 18 -11 0 -7 3 -12 7 -10 28 10 100
-119 118 -213 12 -65 12 -173 0 -125 l-8 30 -1 -36 c-1 -29 -8 -42 -33 -61
-61 -46 -70 -49 -127 -31 l-51 17 -1 45 c-2 33 -3 37 -6 16 -2 -16 -6 -35 -8
-42 -3 -8 -49 4 -146 38 -78 27 -147 53 -153 56 -6 4 -17 8 -26 9 -33 4 -365
124 -368 133 -2 5 -9 8 -16 5 -11 -4 -310 95 -337 112 -17 10 30 52 78 70 24
9 65 17 91 18 38 1 48 4 48 18 0 12 -4 14 -10 8 -24 -24 -63 -10 -98 33 -111
137 -202 324 -258 531 l-19 71 0 -656 -1 -656 127 -45 c71 -25 146 -51 168
-58 22 -7 44 -16 48 -20 10 -9 -75 6 -117 20 -36 13 -45 13 -26 0 10 -6 11
-10 3 -10 -7 0 -13 -4 -13 -10 0 -5 11 -10 25 -10 18 0 25 -5 25 -20 0 -21 16
-26 40 -10 9 6 17 5 21 -1 4 -7 12 -5 22 5 19 19 34 21 20 4 -6 -9 -5 -22 3
-38 8 -14 14 -21 14 -16 0 6 6 1 14 -9 8 -11 20 -16 29 -12 12 4 14 2 10 -10
-5 -13 -3 -14 24 0 38 20 62 47 41 47 -8 0 -19 -5 -26 -12 -9 -9 -12 -9 -12 0
0 6 -7 9 -15 6 -11 -5 -14 0 -13 17 2 16 -5 27 -22 36 -14 7 -22 13 -18 13 13
0 177 -49 333 -99 83 -27 218 -70 300 -96 83 -26 184 -60 225 -75 41 -16 96
-34 123 -40 53 -14 62 -30 18 -30 -17 0 -32 -4 -35 -8 -2 -4 8 -7 22 -6 37 1
63 -7 56 -17 -3 -5 -10 -7 -15 -4 -5 4 -16 -1 -25 -9 -13 -14 -62 -16 -369
-16 -282 0 -353 3 -350 13 7 17 -58 51 -83 43 -13 -4 -22 -1 -25 9 -4 8 -3 14
1 13 4 -1 14 2 22 5 8 3 26 7 40 9 17 2 25 9 25 23 0 17 -6 19 -35 17 -19 -2
-41 -10 -49 -17 -12 -12 -20 -10 -55 8 -23 12 -44 26 -47 31 -4 5 -19 6 -33 4
-18 -4 -26 -1 -26 9 0 12 -3 12 -16 -1 -17 -17 -49 -22 -39 -6 3 6 13 10 21
10 8 0 14 5 14 11 0 7 -11 8 -32 3 -45 -10 -69 -8 -80 8 -8 10 -11 10 -15 1
-2 -7 -11 -13 -18 -13 -8 0 -16 -8 -20 -19 -5 -18 -16 -20 -103 -21 -41 0 -45
-31 -6 -49 l27 -12 -27 -27 c-14 -16 -26 -33 -26 -39 0 -7 -17 -14 -37 -16
-21 -2 718 -4 1642 -4 924 0 1672 1 1662 4 -10 3 -25 19 -33 36 -10 21 -13 24
-10 9 5 -26 -10 -28 -60 -7 -37 15 -37 16 -2 67 22 32 35 35 41 10 3 -11 5 -8
6 9 2 58 69 63 124 11 25 -23 27 -23 16 -5 -12 21 -10 26 26 64 22 23 63 52
90 65 28 13 44 24 37 24 -25 0 -77 -33 -123 -77 -46 -44 -47 -45 -82 -32 -34
12 -35 14 -22 38 25 50 161 218 255 318 52 56 174 174 270 264 373 346 532
519 679 737 24 35 44 62 46 60 11 -12 27 -274 26 -437 0 -271 -28 -458 -97
-655 -27 -79 -40 -96 -99 -130 -54 -32 -254 -114 -378 -156 l-99 -32 -64 21
c-35 11 -70 18 -79 15 -8 -4 -29 6 -47 22 -44 36 -89 54 -135 53 l-38 -2 41
-6 c22 -4 61 -19 87 -34 43 -25 52 -37 48 -60 -1 -5 3 -6 8 -3 13 8 33 -47 42
-117 6 -52 7 -47 4 36 -3 110 -3 110 70 76 43 -20 63 -38 28 -24 -10 3 -2 -11
19 -32 47 -49 89 -113 82 -124 -3 -5 215 -9 510 -9 l516 0 0 2520 0 2520
-2520 0 -2520 0 1 -1157z m2207 758 c24 -5 51 -16 59 -24 14 -14 5 -27 -88
-134 -160 -181 -233 -279 -344 -463 -187 -308 -366 -738 -446 -1067 -27 -115
-41 -209 -16 -113 11 40 18 48 67 73 52 26 48 28 -12 4 -15 -6 -30 -9 -33 -6
-12 13 67 275 142 469 132 338 285 626 455 857 71 97 225 279 276 327 l31 28
33 -23 c104 -72 379 -301 542 -452 l70 -64 -27 -74 c-15 -42 -52 -123 -82
-182 -58 -116 -62 -141 -5 -33 19 36 38 66 41 66 9 0 19 -65 20 -140 1 -36 6
2 11 85 6 112 14 165 30 209 l22 60 119 -125 c159 -166 433 -477 526 -597 l33
-42 -43 -57 c-95 -126 -224 -231 -393 -320 -44 -23 -78 -43 -73 -43 11 0 148
69 180 92 15 11 31 18 36 16 5 -2 -24 -72 -64 -155 -41 -84 -71 -153 -69 -153
7 0 154 305 154 318 0 5 24 28 54 51 54 42 135 124 194 196 l32 40 25 -30 c14
-16 51 -67 82 -112 l56 -83 -38 -56 c-60 -87 -173 -195 -272 -260 -49 -32 -98
-65 -109 -72 -10 -7 -1 -4 21 7 114 55 307 224 371 326 16 25 32 45 35 45 4 0
23 -24 42 -52 l35 -53 -61 -15 -62 -15 75 -5 75 -5 46 -70 c26 -38 50 -81 53
-93 4 -13 15 -33 26 -44 10 -11 29 -39 41 -63 l23 -43 -19 -37 c-11 -20 -32
-51 -47 -68 l-27 -32 3 95 c2 52 2 75 -1 50 -2 -25 -6 -52 -10 -60 -3 -8 -5
-26 -4 -40 2 -41 -11 -53 -45 -39 -16 6 -67 12 -114 12 -120 0 -169 -23 -263
-123 -65 -70 -168 -233 -154 -246 2 -3 27 26 55 63 71 96 162 179 228 210 75
34 187 37 254 7 122 -56 220 -240 220 -414 0 -77 -24 -277 -41 -335 -17 -60
-63 -157 -98 -206 -17 -23 -29 -44 -27 -46 9 -10 44 18 71 56 31 46 29 45 57
30 26 -14 37 -3 12 15 -15 12 -17 19 -8 43 9 24 14 28 44 25 l35 -4 -25 20
c-23 18 -23 22 -12 61 12 40 14 41 57 41 l44 0 -35 -102 c-18 -56 -32 -103
-30 -105 5 -6 206 574 229 662 l13 50 17 -90 c10 -49 22 -140 29 -201 l11
-112 -42 -103 c-24 -57 -82 -182 -129 -278 -72 -147 -95 -184 -148 -239 -35
-37 -66 -63 -69 -60 -4 3 3 45 15 93 11 49 18 90 16 92 -2 3 -16 -46 -31 -109
l-27 -113 -199 -185 c-110 -102 -253 -242 -319 -311 l-118 -125 -99 -23 c-235
-53 -457 -72 -598 -50 -50 7 -94 14 -100 14 -5 0 -12 3 -15 6 -9 10 -133 38
-143 32 -5 -3 -13 0 -17 6 -4 7 -18 13 -31 14 -13 0 -26 4 -29 8 -9 11 -173
68 -182 63 -5 -4 -15 1 -21 10 -7 9 -26 18 -42 20 -17 1 -29 7 -27 14 1 8 -6
10 -23 6 -16 -4 -25 -2 -25 6 0 6 6 8 13 4 9 -5 9 -4 1 5 -6 7 -22 13 -35 15
-51 6 -109 35 -120 61 -4 11 -8 15 -8 8 -1 -14 -27 -11 -43 5 -7 7 -18 12 -25
12 -7 0 -13 4 -13 8 0 5 -11 15 -25 22 -13 7 -22 17 -19 22 3 4 -2 8 -10 8 -9
0 -16 4 -16 10 0 5 -11 12 -24 16 -21 5 -27 15 -37 62 -16 80 -17 82 -19 32
-1 -41 -2 -43 -12 -20 -6 14 -38 81 -70 148 -78 161 -101 189 -527 656 -243
267 -374 508 -496 910 -79 263 -115 585 -96 871 13 195 52 412 78 435 21 19
202 136 331 213 78 48 177 113 221 146 97 74 573 388 608 402 34 13 289 52
368 57 11 1 40 -3 63 -7z m1930 -2107 c7 -15 17 -22 24 -18 7 4 8 3 4 -5 -4
-6 18 -58 52 -119 33 -59 87 -161 121 -226 72 -139 76 -175 35 -277 -14 -35
-38 -100 -53 -144 -24 -69 -31 -80 -53 -83 -36 -4 -59 22 -52 61 13 78 12 77
52 78 l37 1 -35 12 c-22 8 -35 19 -34 29 0 10 1 44 2 77 2 46 6 60 17 60 9 0
16 -10 16 -27 2 -27 2 -27 6 -3 2 14 12 31 21 38 14 11 14 12 -4 13 -58 3 -57
3 -69 56 -13 57 -11 63 16 63 12 0 19 -9 22 -27 4 -28 4 -28 6 3 0 16 6 35 13
42 9 9 8 12 -4 12 -9 0 -19 6 -21 13 -3 7 -6 4 -6 -6 -2 -36 -43 -15 -62 30
-18 42 -18 43 3 54 18 10 24 8 36 -7 13 -18 14 -17 7 6 -12 41 -34 90 -40 90
-3 0 -1 -9 5 -19 18 -35 12 -51 -20 -51 -20 0 -33 7 -41 23 -6 12 -36 47 -66
78 -55 57 -55 57 -38 83 10 14 21 26 26 26 5 0 9 5 9 11 0 16 40 79 49 79 4 0
13 -12 19 -26z m70 -99 c-3 -3 -9 2 -12 12 -6 14 -5 15 5 6 7 -7 10 -15 7 -18z
m293 -866 c-11 -69 -24 -115 -37 -131 -10 -14 -38 -49 -60 -79 -23 -30 -54
-65 -69 -79 -23 -22 -19 -10 29 87 56 112 120 247 137 292 17 43 17 18 0 -90z
m-4091 -1199 c0 -5 -5 -10 -11 -10 -5 0 -7 5 -4 10 3 6 8 10 11 10 2 0 4 -4 4
-10z m2221 -18 c-7 -2 -18 1 -23 6 -8 8 -4 9 13 5 13 -4 18 -8 10 -11z m-2511
-302 c0 -5 -9 -14 -20 -20 -24 -13 -26 -7 -4 14 18 18 24 20 24 6z m1420 -16
c25 -13 25 -13 -7 -7 -21 3 -39 1 -50 -8 -14 -12 -16 -12 -8 0 5 9 2 19 -11
28 -17 14 -16 14 16 8 19 -4 46 -13 60 -21z m-113 -20 c-3 -3 -12 -4 -19 -1
-8 3 -5 6 6 6 11 1 17 -2 13 -5z m170 0 c-3 -3 -12 -4 -19 -1 -8 3 -5 6 6 6
11 1 17 -2 13 -5z"/>
<path d="M1450 4273 c-98 -232 -174 -582 -184 -843 -4 -114 -3 -107 19 110 26
250 91 523 171 719 19 46 33 85 31 87 -2 3 -19 -31 -37 -73z"/>
<path d="M1053 3720 c0 -41 2 -58 4 -37 2 20 2 54 0 75 -2 20 -4 3 -4 -38z"/>
<path d="M3151 3690 c-38 -126 -118 -320 -192 -466 -39 -77 -75 -143 -80 -149
-6 -6 -8 44 -5 135 2 80 2 119 -1 88 -2 -32 -7 -58 -11 -58 -4 0 -27 25 -52
56 -50 62 -106 105 -162 123 -21 7 -38 16 -38 20 0 4 30 46 68 94 37 47 75
101 85 119 21 39 13 29 -74 -89 -73 -100 -218 -247 -316 -321 -40 -30 -73 -57
-73 -59 0 -12 147 105 223 176 57 54 57 54 95 43 47 -15 135 -84 195 -154 l47
-55 0 -77 c0 -43 -5 -87 -11 -99 -9 -19 -7 -18 10 3 28 35 162 297 206 405 51
124 117 315 112 329 -2 6 -14 -23 -26 -64z"/>
<path d="M2246 3602 c-24 -38 -51 -83 -60 -99 -19 -38 -204 -224 -299 -301
-89 -73 -214 -159 -289 -202 -32 -17 -58 -34 -58 -37 0 -7 104 52 180 103 92
61 218 164 323 263 l90 86 -35 -70 c-19 -39 -54 -116 -78 -172 -29 -69 -48
-103 -59 -103 -12 0 -13 -2 -3 -8 9 -7 10 -15 3 -35 -6 -15 -15 -27 -20 -27
-15 0 -42 31 -36 41 12 18 -15 8 -66 -26 -29 -19 -56 -32 -61 -29 -4 3 -8 -4
-8 -15 0 -12 5 -20 11 -18 6 1 16 -6 22 -15 9 -14 5 -23 -28 -52 -47 -42 -54
-43 -91 -14 l-29 22 28 -30 c15 -17 27 -34 27 -40 -1 -5 -14 -24 -30 -43 -24
-29 -33 -33 -64 -29 l-36 4 26 -21 26 -21 -23 -47 c-20 -40 -27 -47 -52 -47
l-29 0 23 -19 c20 -16 22 -23 14 -47 -6 -16 -21 -34 -35 -41 -21 -10 -22 -13
-7 -19 15 -5 16 -16 11 -73 -6 -65 8 -151 25 -151 5 0 11 42 13 93 9 166 71
298 198 428 83 83 191 145 305 174 188 48 371 -30 453 -190 40 -80 72 -208 78
-318 4 -59 11 -107 15 -107 24 0 31 49 26 184 -6 187 -32 272 -111 366 -99
119 -145 142 -311 149 l-120 6 55 32 c30 18 66 33 80 34 14 0 19 3 12 6 -10 4
-10 8 0 21 7 8 -6 3 -30 -12 -63 -40 -242 -129 -248 -123 -6 6 32 107 89 232
38 86 162 308 221 398 10 15 16 27 12 27 -3 0 -26 -31 -50 -68z m-345 -594
c10 -18 8 -24 -7 -35 -37 -27 -94 -29 -94 -3 0 9 67 58 82 59 4 1 13 -9 19
-21z"/>
<path d="M2884 3490 c0 -52 1 -74 3 -47 2 26 2 68 0 95 -2 26 -3 4 -3 -48z"/>
<path d="M1043 3490 c0 -30 2 -43 4 -27 2 15 2 39 0 55 -2 15 -4 2 -4 -28z"/>
<path d="M1051 3265 c-2 -122 42 -417 95 -630 32 -129 85 -297 91 -291 3 3 -6
40 -20 83 -76 232 -135 532 -156 793 -6 81 -9 91 -10 45z"/>
<path d="M1254 3040 c0 -146 2 -205 3 -132 2 72 2 192 0 265 -1 72 -3 13 -3
-133z"/>
<path d="M2480 3036 c0 -2 8 -10 18 -17 15 -13 16 -12 3 4 -13 16 -21 21 -21
13z"/>
<path d="M2560 2968 c24 -27 45 -48 47 -48 8 0 0 9 -44 50 l-48 45 45 -47z"/>
<path d="M2772 2895 c-34 -52 -66 -95 -71 -95 -5 0 -19 16 -31 35 -32 51 -35
43 -4 -10 25 -43 25 -47 10 -70 -16 -25 -16 -25 16 -25 18 0 40 5 48 11 11 8
7 9 -19 5 -41 -7 -40 -4 37 111 58 86 86 133 80 133 -2 0 -32 -43 -66 -95z"/>
<path d="M2610 2906 c0 -2 8 -10 18 -17 15 -13 16 -12 3 4 -13 16 -21 21 -21
13z"/>
<path d="M2990 2819 c-58 -21 -100 -38 -94 -38 14 -1 178 54 201 68 31 18 2
10 -107 -30z"/>
<path d="M2069 2789 c-61 -9 -102 -31 -161 -87 -116 -108 -167 -281 -139 -475
12 -88 35 -140 89 -199 20 -22 36 -42 35 -44 -7 -11 11 -32 22 -27 8 2 29 -3
47 -13 59 -30 66 -33 72 -26 4 3 -13 14 -36 24 l-43 18 62 -6 c71 -7 125 12
187 66 78 69 143 248 152 425 6 96 5 99 -10 70 -9 -16 -26 -38 -37 -47 -23
-20 -69 -24 -85 -8 -7 7 -14 -16 -23 -72 -7 -46 -23 -106 -36 -134 -21 -42
-23 -56 -15 -85 26 -88 -4 -192 -59 -204 -44 -9 -119 4 -174 32 -51 25 -107
92 -107 127 0 28 42 117 63 135 10 7 17 28 17 45 0 71 64 230 106 267 34 30
88 43 123 31 31 -11 31 -11 31 23 0 52 20 86 64 105 l38 18 -24 16 c-34 22
-104 33 -159 25z"/>
<path d="M1352 2765 c0 -16 2 -22 5 -12 2 9 2 23 0 30 -3 6 -5 -1 -5 -18z"/>
<path d="M2858 2773 c7 -3 16 -2 19 1 4 3 -2 6 -13 5 -11 0 -14 -3 -6 -6z"/>
<path d="M2808 2763 c7 -3 16 -2 19 1 4 3 -2 6 -13 5 -11 0 -14 -3 -6 -6z"/>
<path d="M2768 2753 c7 -3 16 -2 19 1 4 3 -2 6 -13 5 -11 0 -14 -3 -6 -6z"/>
<path d="M1262 2695 c-1 -33 9 -161 22 -285 13 -124 22 -226 21 -228 -1 -2
-15 32 -31 74 -15 43 -29 73 -31 67 -4 -12 208 -545 214 -539 2 2 -26 77 -62
167 l-67 164 -6 150 c-4 96 -8 134 -12 105 -6 -45 -6 -44 -14 25 -4 39 -13
135 -21 215 -7 87 -13 121 -13 85z"/>
<path d="M1343 2695 c0 -22 2 -30 4 -17 2 12 2 30 0 40 -3 9 -5 -1 -4 -23z"/>
<path d="M1333 2605 c0 -27 2 -38 4 -22 2 15 2 37 0 50 -2 12 -4 0 -4 -28z"/>
<path d="M3155 2594 l-37 -57 27 7 c15 4 42 14 59 22 17 8 23 12 13 9 -11 -3
-31 -8 -45 -12 l-26 -6 28 46 c37 65 27 59 -19 -9z"/>
<path d="M3260 2595 c-14 -8 -20 -14 -15 -14 6 0 21 6 35 14 14 8 21 14 15 14
-5 0 -21 -6 -35 -14z"/>
<path d="M2033 2541 c-91 -56 -125 -297 -48 -347 32 -21 60 -11 107 38 51 54
89 184 58 203 -6 3 -7 23 -4 43 4 29 2 41 -13 53 -30 27 -66 30 -100 10z"/>
<path d="M1323 2500 c0 -30 2 -43 4 -27 2 15 2 39 0 55 -2 15 -4 2 -4 -28z"/>
<path d="M3604 2464 c-18 -14 -18 -15 4 -4 12 6 22 13 22 15 0 8 -5 6 -26 -11z"/>
<path d="M3668 2210 c-141 -42 -237 -244 -241 -509 -2 -82 15 -175 34 -187 5
-3 4 7 -1 21 -24 62 -11 112 45 175 17 19 24 42 28 91 8 107 63 210 130 245
24 13 31 13 57 -1 40 -20 40 -20 40 24 0 51 31 91 71 91 39 0 29 16 -25 41
-43 20 -93 23 -138 9z"/>
<path d="M1820 2023 c0 -15 15 -28 33 -29 23 -2 22 1 -8 20 -14 9 -25 13 -25
9z"/>
<path d="M3680 1992 c-48 -15 -92 -86 -110 -178 -12 -56 -11 -62 13 -116 24
-55 28 -58 61 -58 28 0 40 7 61 35 45 59 74 202 44 220 -5 4 -7 19 -4 34 8 35
-32 74 -65 63z"/>
<path d="M3923 1944 c-23 -35 -51 -44 -88 -29 l-31 12 -12 -96 c-6 -53 -19
-118 -28 -144 -12 -36 -13 -52 -5 -60 14 -14 14 -117 0 -154 -21 -55 -47 -73
-108 -73 -62 0 -101 19 -152 72 -27 30 -29 30 -14 6 10 -16 14 -28 10 -28 -4
0 -2 -6 4 -13 6 -8 8 -17 4 -20 -3 -4 1 -7 10 -7 9 0 33 -9 54 -19 21 -11 56
-22 78 -26 36 -5 38 -4 15 6 -25 12 -24 12 15 19 86 14 142 64 200 181 20 38
42 98 50 132 16 69 32 267 22 267 -4 0 -14 -12 -24 -26z"/>
<path d="M1460 1765 c0 -5 5 -17 10 -25 5 -8 10 -10 10 -5 0 6 -5 17 -10 25
-5 8 -10 11 -10 5z"/>
<path d="M1480 1715 c0 -5 5 -17 10 -25 5 -8 10 -10 10 -5 0 6 -5 17 -10 25
-5 8 -10 11 -10 5z"/>
<path d="M3024 1565 c-16 -41 -18 -55 -8 -55 20 0 44 41 44 77 0 48 -12 40
-36 -22z"/>
<path d="M1550 1535 c0 -5 5 -17 10 -25 5 -8 10 -10 10 -5 0 6 -5 17 -10 25
-5 8 -10 11 -10 5z"/>
<path d="M1580 1455 c0 -5 5 -17 10 -25 5 -8 10 -10 10 -5 0 6 -5 17 -10 25
-5 8 -10 11 -10 5z"/>
<path d="M4201 1389 c-7 -22 -11 -43 -8 -45 2 -2 9 14 16 37 7 22 11 43 8 45
-2 2 -9 -14 -16 -37z"/>
<path d="M3695 1371 c-3 -5 -1 -12 5 -16 5 -3 10 1 10 9 0 18 -6 21 -15 7z"/>
<path d="M4181 1314 c0 -11 3 -14 6 -6 3 7 2 16 -1 19 -3 4 -6 -2 -5 -13z"/>
<path d="M1633 1308 c9 -24 75 -233 80 -253 4 -17 5 -17 6 -2 1 21 -77 267
-86 267 -3 0 -3 -6 0 -12z"/>
<path d="M2228 1293 c12 -2 30 -2 40 0 9 3 -1 5 -23 4 -22 0 -30 -2 -17 -4z"/>
<path d="M2318 1283 c12 -2 30 -2 40 0 9 3 -1 5 -23 4 -22 0 -30 -2 -17 -4z"/>
<path d="M2393 1273 c9 -2 23 -2 30 0 6 3 -1 5 -18 5 -16 0 -22 -2 -12 -5z"/>
<path d="M2448 1263 c6 -2 18 -2 25 0 6 3 1 5 -13 5 -14 0 -19 -2 -12 -5z"/>
<path d="M2510 1250 c34 -11 60 -11 35 0 -11 5 -29 8 -40 8 -16 0 -15 -2 5 -8z"/>
<path d="M2578 1233 c7 -3 16 -2 19 1 4 3 -2 6 -13 5 -11 0 -14 -3 -6 -6z"/>
<path d="M2618 1223 c7 -3 16 -2 19 1 4 3 -2 6 -13 5 -11 0 -14 -3 -6 -6z"/>
<path d="M2230 1195 c0 -47 144 -216 221 -259 42 -23 31 -13 -44 43 -65 49
-105 97 -148 174 -16 28 -29 48 -29 42z"/>
<path d="M2720 1190 c8 -5 20 -10 25 -10 6 0 3 5 -5 10 -8 5 -19 10 -25 10 -5
0 -3 -5 5 -10z"/>
<path d="M2770 1170 c8 -5 20 -10 25 -10 6 0 3 5 -5 10 -8 5 -19 10 -25 10 -5
0 -3 -5 5 -10z"/>
<path d="M2820 1150 c8 -5 20 -10 25 -10 6 0 3 5 -5 10 -8 5 -19 10 -25 10 -5
0 -3 -5 5 -10z"/>
<path d="M2903 1114 c27 -14 51 -23 54 -21 5 5 -83 47 -96 47 -3 -1 16 -12 42
-26z"/>
<path d="M2998 1072 c38 -19 55 -64 50 -132 -3 -44 -4 -45 -58 -68 -30 -13
-42 -20 -26 -17 39 8 146 61 182 90 28 23 29 23 10 43 -18 21 -166 103 -183
101 -4 0 7 -8 25 -17z m115 -67 c20 -14 37 -30 37 -35 0 -9 -69 -55 -74 -49
-7 9 -14 109 -8 109 4 0 24 -11 45 -25z"/>
<path d="M1722 1005 c0 -16 2 -22 5 -12 2 9 2 23 0 30 -3 6 -5 -1 -5 -18z"/>
<path d="M1732 920 c0 -19 2 -27 5 -17 2 9 2 25 0 35 -3 9 -5 1 -5 -18z"/>
<path d="M2490 915 c0 -7 81 -47 86 -43 2 3 -17 14 -41 26 -25 12 -45 20 -45
17z"/>
<path d="M2628 853 c7 -3 16 -2 19 1 4 3 -2 6 -13 5 -11 0 -14 -3 -6 -6z"/>
<path d="M2678 843 c7 -3 16 -2 19 1 4 3 -2 6 -13 5 -11 0 -14 -3 -6 -6z"/>
<path d="M2908 843 c7 -3 16 -2 19 1 4 3 -2 6 -13 5 -11 0 -14 -3 -6 -6z"/>
<path d="M2763 833 c20 -2 54 -2 75 0 20 2 3 4 -38 4 -41 0 -58 -2 -37 -4z"/>
<path d="M4125 2420 c27 -30 51 -57 53 -60 3 -3 0 4 -6 15 -6 11 -30 38 -53
60 -43 39 -43 39 6 -15z"/>
<path d="M4241 2194 c0 -11 3 -14 6 -6 3 7 2 16 -1 19 -3 4 -6 -2 -5 -13z"/>
<path d="M80 2606 c0 -3 -16 -68 -35 -144 -20 -75 -38 -162 -40 -192 -4 -39 2
-22 19 55 13 61 34 148 46 194 11 46 19 86 16 89 -4 3 -6 2 -6 -2z"/>
<path d="M593 1323 c9 -2 23 -2 30 0 6 3 -1 5 -18 5 -16 0 -22 -2 -12 -5z"/>
<path d="M660 1310 c8 -5 20 -10 25 -10 6 0 3 5 -5 10 -8 5 -19 10 -25 10 -5
0 -3 -5 5 -10z"/>
<path d="M463 1280 c-28 -16 -55 -35 -59 -42 -6 -11 -5 -11 8 0 8 7 40 26 69
42 30 16 50 30 44 30 -5 0 -33 -14 -62 -30z"/>
<path d="M768 1303 c6 -2 18 -2 25 0 6 3 1 5 -13 5 -14 0 -19 -2 -12 -5z"/>
<path d="M700 1294 c0 -1 10 -8 23 -17 21 -13 23 -13 23 4 0 13 -7 18 -23 17
-13 -2 -23 -3 -23 -4z"/>
<path d="M760 1256 c0 -2 8 -10 18 -17 15 -13 16 -12 3 4 -13 16 -21 21 -21
13z"/>
<path d="M892 990 c0 -14 2 -19 5 -12 2 6 2 18 0 25 -3 6 -5 1 -5 -13z"/>
<path d="M902 895 c0 -16 2 -22 5 -12 2 9 2 23 0 30 -3 6 -5 -1 -5 -18z"/>
<path d="M100 473 c0 -12 52 -33 63 -26 5 3 -5 12 -23 19 -37 16 -40 17 -40 7z"/>
<path d="M210 330 c0 -5 5 -10 10 -10 6 0 10 5 10 10 0 6 -4 10 -10 10 -5 0
-10 -4 -10 -10z"/>
<path d="M177 294 c-4 -4 -7 -16 -7 -26 0 -18 1 -18 16 -4 8 9 20 13 26 10 6
-4 9 -1 6 7 -5 16 -30 23 -41 13z"/>
<path d="M717 260 c-16 -19 -16 -20 3 -20 11 0 20 5 20 10 0 6 7 10 15 10 8 0
15 -5 15 -11 0 -5 5 -7 11 -3 8 4 3 12 -12 20 -31 17 -32 17 -52 -6z"/>
<path d="M240 250 c0 -5 4 -10 9 -10 6 0 13 5 16 10 3 6 -1 10 -9 10 -9 0 -16
-4 -16 -10z"/>
<path d="M298 253 c7 -3 16 -2 19 1 4 3 -2 6 -13 5 -11 0 -14 -3 -6 -6z"/>
<path d="M102 194 c-18 -19 -28 -34 -23 -34 13 0 71 50 71 61 0 16 -14 8 -48
-27z"/>
<path d="M40 200 c-12 -8 -9 -10 13 -10 16 0 26 4 22 10 -8 12 -16 12 -35 0z"/>
<path d="M555 180 c-3 -5 1 -10 9 -10 9 0 16 5 16 10 0 6 -4 10 -9 10 -6 0
-13 -4 -16 -10z"/>
<path d="M3850 176 c0 -2 9 -6 20 -9 11 -3 18 -1 14 4 -5 9 -34 13 -34 5z"/>
<path d="M1246 97 c9 -31 10 -31 35 -13 24 16 25 15 -27 31 -12 4 -14 0 -8
-18z"/>
<path d="M1296 81 c-11 -12 -16 -24 -12 -28 9 -9 39 22 34 37 -2 7 -10 4 -22
-9z"/>
<path d="M3441 36 c0 -23 3 -34 6 -26 20 61 21 67 7 67 -10 0 -14 -13 -13 -41z"/>
<path d="M5 40 c-3 -5 -1 -10 4 -10 6 0 11 5 11 10 0 6 -2 10 -4 10 -3 0 -8
-4 -11 -10z"/>
</g>
</svg>
